<svg xmlns="http://www.w3.org/2000/svg" xmlns:xlink="http://www.w3.org/1999/xlink" viewBox="0 0 750 500"><defs><style>.cls-1{isolation:isolate;}.cls-2{fill:#e9fdff;}.cls-3,.cls-4{opacity:0.37;mix-blend-mode:darken;}.cls-3{fill:url(#Degradado_sin_nombre_59);}.cls-4{fill:url(#Degradado_sin_nombre_59-2);}.cls-5{fill:url(#Degradado_sin_nombre_10);}.cls-6{fill:url(#Degradado_sin_nombre_10-2);}.cls-7{fill:url(#Degradado_sin_nombre_59-3);}.cls-8{fill:url(#Degradado_sin_nombre_10-3);}.cls-9{fill:url(#Degradado_sin_nombre_59-4);}.cls-10{fill:url(#Degradado_sin_nombre_10-4);}.cls-11{fill:url(#Degradado_sin_nombre_59-5);}.cls-12{fill:#111023;}.cls-13{fill:url(#Degradado_sin_nombre_59-6);}.cls-14{fill:url(#Degradado_sin_nombre_88);}.cls-15{fill:url(#Degradado_sin_nombre_25);}.cls-16{fill:url(#Degradado_sin_nombre_59-7);}.cls-17{fill:url(#Degradado_sin_nombre_25-2);}.cls-18{fill:url(#Degradado_sin_nombre_59-8);}.cls-19{fill:url(#Degradado_sin_nombre_86);}.cls-20{fill:#5b2b89;}.cls-21{fill:url(#Degradado_sin_nombre_12);}.cls-22{fill:url(#Degradado_sin_nombre_12-2);}.cls-23{fill:url(#Degradado_sin_nombre_12-3);}.cls-24{fill:url(#Degradado_sin_nombre_12-4);}.cls-25{fill:url(#Degradado_sin_nombre_86-2);}.cls-26{opacity:0.38;mix-blend-mode:overlay;fill:url(#Degradado_sin_nombre_87);}.cls-27{fill:url(#Degradado_sin_nombre_86-3);}.cls-28{fill:#f79244;}.cls-29{fill:#fff;}.cls-30{opacity:0.5;mix-blend-mode:multiply;fill:url(#Degradado_sin_nombre_25-3);}.cls-31{fill:url(#Degradado_sin_nombre_25-4);}.cls-32{fill:url(#Degradado_sin_nombre_25-5);}.cls-33{fill:url(#Degradado_sin_nombre_59-9);}.cls-34{fill:url(#Degradado_sin_nombre_10-5);}.cls-35{fill:#2a2a2a;}.cls-36{fill:url(#Degradado_sin_nombre_12-5);}</style><linearGradient id="Degradado_sin_nombre_59" x1="387.92" y1="387.46" x2="404.1" y2="143.15" gradientUnits="userSpaceOnUse"><stop offset="0" stop-color="#31d1d6"/><stop offset="0.37" stop-color="#32ced8"/><stop offset="0.62" stop-color="#36c6df"/><stop offset="0.82" stop-color="#3cb7eb"/><stop offset="1" stop-color="#45a3fa"/></linearGradient><linearGradient id="Degradado_sin_nombre_59-2" x1="401.07" y1="387.46" x2="417.25" y2="143.15" xlink:href="#Degradado_sin_nombre_59"/><linearGradient id="Degradado_sin_nombre_10" x1="238.67" y1="197.97" x2="238.67" y2="155.36" gradientUnits="userSpaceOnUse"><stop offset="0" stop-color="#f9e6d9"/><stop offset="0.12" stop-color="#fcf1ea"/><stop offset="0.27" stop-color="#fef9f6"/><stop offset="0.48" stop-color="#fffefd"/><stop offset="1" stop-color="#fff"/></linearGradient><linearGradient id="Degradado_sin_nombre_10-2" x1="530.77" y1="227.88" x2="533.47" y2="186.35" xlink:href="#Degradado_sin_nombre_10"/><linearGradient id="Degradado_sin_nombre_59-3" x1="218.26" y1="300.52" x2="331.39" y2="300.52" xlink:href="#Degradado_sin_nombre_59"/><linearGradient id="Degradado_sin_nombre_10-3" x1="265.23" y1="383.05" x2="264.15" y2="328.04" xlink:href="#Degradado_sin_nombre_10"/><linearGradient id="Degradado_sin_nombre_59-4" x1="462.04" y1="311.1" x2="575.18" y2="311.1" gradientTransform="matrix(0.98, -0.19, 0.19, 0.98, -47.32, 104.32)" xlink:href="#Degradado_sin_nombre_59"/><linearGradient id="Degradado_sin_nombre_10-4" x1="517.23" y1="378.11" x2="516.15" y2="323.1" xlink:href="#Degradado_sin_nombre_10"/><linearGradient id="Degradado_sin_nombre_59-5" x1="290.26" y1="231.05" x2="322.26" y2="222.78" xlink:href="#Degradado_sin_nombre_59"/><linearGradient id="Degradado_sin_nombre_59-6" x1="226.74" y1="200.65" x2="297.98" y2="200.65" xlink:href="#Degradado_sin_nombre_59"/><linearGradient id="Degradado_sin_nombre_88" x1="177.14" y1="58.97" x2="229.51" y2="58.97" gradientUnits="userSpaceOnUse"><stop offset="0" stop-color="#51adc6"/><stop offset="0.01" stop-color="#55afc4"/><stop offset="0.07" stop-color="#74bfb5"/><stop offset="0.13" stop-color="#8fcda7"/><stop offset="0.21" stop-color="#a5d89d"/><stop offset="0.3" stop-color="#b6e194"/><stop offset="0.41" stop-color="#c1e78e"/><stop offset="0.57" stop-color="#c8ea8b"/><stop offset="1" stop-color="#caeb8a"/></linearGradient><linearGradient id="Degradado_sin_nombre_25" x1="180.05" y1="52.92" x2="171.58" y2="52.92" gradientUnits="userSpaceOnUse"><stop offset="0" stop-color="#8aebd6"/><stop offset="0.46" stop-color="#89e9d7"/><stop offset="0.63" stop-color="#84e2da"/><stop offset="0.75" stop-color="#7dd7de"/><stop offset="0.84" stop-color="#72c6e5"/><stop offset="0.92" stop-color="#64b0ee"/><stop offset="0.99" stop-color="#5395f9"/><stop offset="1" stop-color="#5193fa"/></linearGradient><linearGradient id="Degradado_sin_nombre_59-7" x1="181.6" y1="57.99" x2="171.53" y2="57.99" xlink:href="#Degradado_sin_nombre_59"/><linearGradient id="Degradado_sin_nombre_25-2" x1="181.62" y1="63.84" x2="172.36" y2="63.84" xlink:href="#Degradado_sin_nombre_25"/><linearGradient id="Degradado_sin_nombre_59-8" x1="229.51" y1="58.47" x2="260.31" y2="58.47" xlink:href="#Degradado_sin_nombre_59"/><linearGradient id="Degradado_sin_nombre_86" x1="216.04" y1="68.1" x2="230.73" y2="68.1" gradientUnits="userSpaceOnUse"><stop offset="0" stop-color="#f7be86"/><stop offset="0.33" stop-color="#f7bc83"/><stop offset="0.54" stop-color="#f7b67b"/><stop offset="0.73" stop-color="#f7ac6c"/><stop offset="0.89" stop-color="#f79e57"/><stop offset="1" stop-color="#f79244"/></linearGradient><linearGradient id="Degradado_sin_nombre_12" x1="302.8" y1="79.33" x2="302.31" y2="96.99" gradientUnits="userSpaceOnUse"><stop offset="0" stop-color="#7b6ed6"/><stop offset="0.48" stop-color="#796dd5"/><stop offset="0.65" stop-color="#7268d0"/><stop offset="0.78" stop-color="#6760c9"/><stop offset="0.88" stop-color="#5655be"/><stop offset="0.96" stop-color="#4047b0"/><stop offset="1" stop-color="#333ea8"/></linearGradient><linearGradient id="Degradado_sin_nombre_12-2" x1="314.71" y1="79.56" x2="313.41" y2="120.57" xlink:href="#Degradado_sin_nombre_12"/><linearGradient id="Degradado_sin_nombre_12-3" x1="325.52" y1="79.95" x2="325.03" y2="97.62" xlink:href="#Degradado_sin_nombre_12"/><linearGradient id="Degradado_sin_nombre_12-4" x1="221" y1="117.2" x2="339.01" y2="117.2" xlink:href="#Degradado_sin_nombre_12"/><linearGradient id="Degradado_sin_nombre_86-2" x1="272.09" y1="67.38" x2="293.45" y2="67.38" xlink:href="#Degradado_sin_nombre_86"/><linearGradient id="Degradado_sin_nombre_87" x1="283.49" y1="108.81" x2="339.01" y2="108.81" gradientUnits="userSpaceOnUse"><stop offset="0" stop-color="#3c0887"/><stop offset="0.32" stop-color="#3f0987"/><stop offset="0.53" stop-color="#470e87"/><stop offset="0.71" stop-color="#561588"/><stop offset="0.87" stop-color="#6b1f89"/><stop offset="1" stop-color="#822a8a"/></linearGradient><linearGradient id="Degradado_sin_nombre_86-3" x1="296.64" y1="71.93" x2="324.7" y2="71.93" xlink:href="#Degradado_sin_nombre_86"/><linearGradient id="Degradado_sin_nombre_25-3" x1="406.5" y1="451.89" x2="407.58" y2="377.46" xlink:href="#Degradado_sin_nombre_25"/><linearGradient id="Degradado_sin_nombre_25-4" x1="581.42" y1="447.11" x2="581.42" y2="381.58" xlink:href="#Degradado_sin_nombre_25"/><linearGradient id="Degradado_sin_nombre_25-5" x1="258.4" y1="447.11" x2="258.4" y2="381.58" xlink:href="#Degradado_sin_nombre_25"/><linearGradient id="Degradado_sin_nombre_59-9" x1="360.81" y1="325.37" x2="466.16" y2="325.37" gradientTransform="translate(63.95 -75.19) rotate(11.55)" xlink:href="#Degradado_sin_nombre_59"/><linearGradient id="Degradado_sin_nombre_10-5" x1="390.77" y1="380.59" x2="389.69" y2="325.58" xlink:href="#Degradado_sin_nombre_10"/><linearGradient id="Degradado_sin_nombre_12-5" x1="441.81" y1="245.29" x2="484.51" y2="245.29" xlink:href="#Degradado_sin_nombre_12"/></defs><g class="cls-1"><g id="BACKGROUND"><rect class="cls-2" width="750" height="500"/></g><g id="OBJECTS"><path class="cls-3" d="M204.16,373.45H152.68c-13.78-14.31-17.46-37.11-9.24-55.19,7.85-17.24,24.69-28.62,34.89-44.57,21.78-34,11.26-84.76,40.85-112.28,14.79-13.75,36.06-17.73,56.2-19.34s40.94-1.56,59.56-9.39c23-9.65,40.28-30.38,63.93-38.19,26.56-8.77,58.33,2.17,73.85,25.44,9.71,14.56,13.38,32.85,24.86,46.06,18.57,21.35,51.29,23,74.45,39.27a69.22,69.22,0,0,1,28.66,48.67c2.47,23.3-6.38,49.77,7.6,68.59,6.81,9.17,17.86,14.34,25.2,23.1s9.38,16.68,7.08,27.83Z"/><path class="cls-4" d="M217.32,373.45H165.83c-13.77-14.31-17.46-37.11-9.23-55.19,7.85-17.24,24.69-28.62,34.89-44.57,21.78-34,11.25-84.76,40.84-112.28,14.8-13.75,36.07-17.73,56.2-19.34s41-1.56,59.57-9.39c23-9.65,40.27-30.38,63.93-38.19,26.56-8.77,58.33,2.17,73.85,25.44,9.71,14.56,13.37,32.85,24.86,46.06,18.57,21.35,51.29,23,74.45,39.27a69.25,69.25,0,0,1,28.66,48.67c2.47,23.3-6.38,49.77,7.59,68.59,6.82,9.17,17.87,14.34,25.21,23.1s9.37,16.68,7.07,27.83Z"/><path class="cls-5" d="M335.81,197.16l-2.12.07H142.23l-.46.06c-1.9-12.7,8-25.6,20.55-29,10.94-3,23.74-.33,32.9-7,8.21-6,10.25-17.19,15.62-25.82a36.56,36.56,0,0,1,13.67-12.84c7-3.75,15.69-5.06,22.85-1.67,12.68,6,15.11,22.82,23.59,34,1.89,2.5,4.27,4.83,7.3,5.66,2.79.77,5.75.17,8.61-.34,9.37-1.65,20.61-1.5,26.44,6,2.74,3.54,3.72,8.08,5.24,12.28s4,8.53,8.22,10c2,.71,4.31.73,6.09,1.92C335,191.94,335.68,194.49,335.81,197.16Z"/><path class="cls-6" d="M643.77,221.34H420.5a8.91,8.91,0,0,1-.73-8.74c1.65-3.65,5.09-6.13,8.52-8.19s7.08-4,9.65-7c4.93-5.89,4.64-14.34,5.73-21.94,1.28-9,5.06-18,11.88-24a37.16,37.16,0,0,1,9.11-5.82c9.35-4.35,20.93-5.44,29.67,0,8.36,5.24,12.46,15.21,19.75,21.86a13.69,13.69,0,0,0,6,3.52c6.53,1.5,12.08-4.42,17-9,7-6.49,16.26-11.34,25.7-10.13,11.1,1.44,19.68,11,23.89,21.33,1.76,4.32,3.1,9.1,6.6,12.17,9,7.87,24.14-.95,34.61,4.77,3.93,2.15,6.56,6.06,8.66,10A72.32,72.32,0,0,1,643.77,221.34Z"/><path class="cls-7" d="M331.39,345.21H315.33v28.23H276.42V345.21H218.26V316.28l60.66-88.69h36.41v88.19h16.06Zm-55-29.43v-17q0-4.79.35-12.92a83.79,83.79,0,0,1,.55-8.53h-1.1a105.45,105.45,0,0,1-7.68,14.37l-16.16,24Z"/><path class="cls-8" d="M320.77,345.22H304.7v28.23H265.8V345.22H207.63V316.29l60.66-88.69H304.7v88.19h16.07Zm-55-29.43v-17q0-4.79.35-12.92t.54-8.53H265.6a105.49,105.49,0,0,1-7.69,14.37l-16.16,24Z"/><path class="cls-9" d="M585.29,346.19l-5.59-28.9-10.43,2-5.34,1-16.74-86.59-35.76,6.92-42.71,98.59,5.49,28.41,57.11-11.05,3.25,16.83H574.2l-4.68-24.21,5.34-1Zm-70-16.44-13.17,2.54,9.4-22.18,1.9-4.49a105.8,105.8,0,0,0,4.81-15.57l1.08-.2a84.31,84.31,0,0,0,1.08,8.48q1.2,8,2.11,12.75l3.22,16.65Z"/><path class="cls-10" d="M574.86,348.21l-5.59-28.89-15.77,3.05-16.75-86.59-25.32,4.89-10.43,2-42.71,98.6,5.49,28.4,10.43-2,46.68-9,2.86,14.8h39.63l-4.29-22.19,10.43-2Zm-63.33-38.1c.19,1.09.38,2.08.55,3l3.22,16.65-23.61,4.57L503,307.64a105.3,105.3,0,0,0,4.81-15.56l1.08-.21a83.56,83.56,0,0,0,1.08,8.48C510.54,304.17,511.06,307.43,511.53,310.11Z"/><path class="cls-11" d="M336.82,299.47H313.07L298,189s-21.81-23.82-46.84-28.28L275,158.13l53.73,1.46Z"/><path class="cls-12" d="M243.07,238.73s-13.5,19.75-7.5,36.72l25.11-36.72-3.26-4.38Z"/><path class="cls-12" d="M313.07,299.47l-.81,5.1s-7.16,1-7.56,11.22h18.62l10.11-9.87.94-6.45Z"/><path class="cls-13" d="M284.33,188.9l-29.77-1.11,4.84,45.59-20.18,7.23-11.63-56.3a17.4,17.4,0,0,1,14.67-22.65l8.87-1h0C276.17,165.16,298,189,298,189Z"/><path class="cls-14" d="M229.51,61.65V63l-1.61.21a6.21,6.21,0,0,0-1.3-2c-2.15-1.85-3.65-3.32-5.19-2.42-1.16.67-1.07,3.86-1,5.36l-4.39.56-38.89,4.93,0-.07c2.52-.59,4.48-5.12,4.48-10.62s-1.9-9.9-4.37-10.6l52.26,5.89v7.43Z"/><path class="cls-15" d="M180.05,51.18a4.94,4.94,0,0,0-.3.49A28.38,28.38,0,0,1,178.24,55a4.48,4.48,0,0,1-2.07,1.63,11.62,11.62,0,0,1-2.76.53,6.23,6.23,0,0,0-1.83.46c.29-5.19,2.34-9.23,4.86-9.36l.81.09A5,5,0,0,1,180.05,51.18Z"/><path class="cls-16" d="M181.6,58.06a.1.1,0,0,0,0,0c-.64.86-.95,1.93-1.55,2.81A5,5,0,0,1,177,63c-1.12.25-2.34.11-3.37.63a3.32,3.32,0,0,0-1.26,1.18,20.25,20.25,0,0,1-.83-5.88c0-.45,0-.89.05-1.33a6.23,6.23,0,0,1,1.83-.46,11.62,11.62,0,0,0,2.76-.53A4.48,4.48,0,0,0,178.24,55a28.38,28.38,0,0,0,1.51-3.31,4.94,4.94,0,0,1,.3-.49A17.17,17.17,0,0,1,181.6,58.06Z"/><path class="cls-17" d="M181.62,58.93c0,5.5-2,10-4.48,10.62a2.17,2.17,0,0,1-.57.07c-1.76,0-3.31-1.91-4.21-4.81a3.32,3.32,0,0,1,1.26-1.18c1-.52,2.25-.38,3.37-.63a5,5,0,0,0,3-2.08c.6-.88.91-2,1.55-2.81a.1.1,0,0,1,0,0C181.61,58.34,181.62,58.63,181.62,58.93Z"/><path class="cls-12" d="M260.31,56.31H276a13.22,13.22,0,0,0-3.67,2c-.5.46-.28,1.29.33,2.37H260.31Z"/><path class="cls-12" d="M295.16,59v1.74h-8.52A32.47,32.47,0,0,1,285,56.31h10.16Z"/><polygon class="cls-18" points="260.31 60.69 260.31 61.65 229.51 61.65 229.51 55.28 260.31 55.28 260.31 56.31 260.31 60.69"/><path class="cls-19" d="M230.73,72.54,224,77.7s-8.23-8.63-7.9-13l4.39-.56c-.1-1.5-.19-4.69,1-5.36,1.54-.9,3,.57,5.19,2.42a6.21,6.21,0,0,1,1.3,2A54.28,54.28,0,0,1,230.73,72.54Z"/><path class="cls-20" d="M185.11,48.37c-.46-1-1.92-.15-1.47.83a20,20,0,0,1-.91,18.62.85.85,0,0,0,1.46.85A21.84,21.84,0,0,0,185.11,48.37Z"/><polygon class="cls-21" points="305.86 79.35 305.86 84.58 299.61 78.67 305.86 79.35"/><path class="cls-22" d="M305.86,84.58l6.31,6,6,5.68S332,86.56,337.3,86.48a5.54,5.54,0,0,1,1.09.08c4.72.66,7.6,6.12,6.78,11.35-.9,5.63-.74,11.87-6.16,12.88s-29.34,6.82-29.34,6.82L283.49,82.1,286.58,80l6.87-4.81,1.39-1,3,2.85,1.75,1.65Z"/><path class="cls-23" d="M322.76,80.44l15.63,6.12a5.54,5.54,0,0,0-1.09-.08c-5.34.08-19.12,9.73-19.12,9.73l-6-5.68Z"/><path class="cls-24" d="M339,110.79l-9.08,24.72-1.22,24.08s-1.06.19-2.91.45c-8.66,1.23-34.6,4.19-50.82-1.91l6.32-29.91-2.92-23.59-35.25,3.9L221,80,224,77.7l6.78-5.16L251.64,93l32.72-14.3A12.66,12.66,0,0,0,286.58,80l-3.09,2.15,26.18,35.51S333.58,111.81,339,110.79Z"/><path class="cls-25" d="M293.45,75.14,286.58,80a12.66,12.66,0,0,1-2.22-1.28,7.93,7.93,0,0,1-3.61-5.52c-.29-3.46-6.14-9.1-8.05-12.46-.61-1.08-.83-1.91-.33-2.37a13.22,13.22,0,0,1,3.67-2c3.63-1.44,8.47-2.42,8.91-.18a1.21,1.21,0,0,0,.05.18,32.47,32.47,0,0,0,1.64,4.38C289.13,66.49,293.45,75.14,293.45,75.14Z"/><path class="cls-26" d="M329.93,135.51C289.88,127,283.49,82.1,283.49,82.1l26.18,35.53L339,110.79Z"/><path class="cls-27" d="M322.53,58.61a1.51,1.51,0,0,1,2.05,1.29c.79,3.1-2.68,6.81-2.68,6.81l.86,13.73L312.17,90.53l4.14-11.86-10.45.68-6.25-.68L297.86,77S296.64,65.63,296.64,59a20.74,20.74,0,0,1,.23-3.67l.05-.33c7.32,1.24,17.48-1.62,17.48-1.62s1.43,13.87,3.37,14.11,2.56-7.54,2.56-7.54A6.59,6.59,0,0,1,322.53,58.61Z"/><path class="cls-12" d="M322.62,48.53l-.09,10.08a6.59,6.59,0,0,0-2.2,1.29s-.61,7.78-2.56,7.54-3.37-14.11-3.37-14.11S304.24,56.19,296.92,55h0a9.78,9.78,0,0,1-5.64-2.57c-5.6-5.9-3.66-9.25,4.37-7.42S320.31,37.11,322.62,48.53Z"/><polygon class="cls-28" points="316.31 78.67 312.17 90.53 305.86 84.58 305.86 79.35 316.31 78.67"/><path class="cls-12" d="M296.22,56.78a6.1,6.1,0,0,1,5-.29c1,.37.26,1.89-.77,1.53a4.16,4.16,0,0,0-3.28.2C296.18,58.7,295.24,57.28,296.22,56.78Z"/><ellipse class="cls-12" cx="311.77" cy="60.84" rx="1.23" ry="1.82" transform="translate(-2.75 16.36) rotate(-2.99)"/><path class="cls-12" d="M313.92,56.37a6.16,6.16,0,0,0-5,.23c-1,.48-.05,1.91.93,1.44a4.2,4.2,0,0,1,3.28-.14C314.16,58.28,315,56.76,313.92,56.37Z"/><path class="cls-28" d="M302.05,66.48c.55-2.59,1.88-5.22,2.79-7.7.19-.52,1-.13.76.39l-1.71,4.69a11.63,11.63,0,0,0-.73,2c-.18,2,.71,1.79,1.72,2.26.5.24.11,1-.39.77C303.25,68.33,301.68,68.25,302.05,66.48Z"/><path class="cls-12" d="M301.11,61.05a5.44,5.44,0,0,0-2.73-1.2c-.63-.08-.89.89-.25,1a4.93,4.93,0,0,1,1.46.44l-1.6.52c-.61.19-.36,1.16.26,1l2.63-.85C301.2,61.78,301.42,61.3,301.11,61.05Z"/><ellipse class="cls-29" cx="305.24" cy="74.1" rx="2.22" ry="3.21"/><path class="cls-30" d="M611.75,373.45H210.49S188.9,387.79,221,390.21s82.17,4.72,80.93,15.64-30.22,8.77-30.22,28,133.7,14.83,133.7,14.83,75.53,1,86.28-11.77-30.44-24.45-23-29.49,61.77,10.07,69.86-2.16-1.61-19.95,13.31-21.57S609.24,388,611.75,373.45Z"/><ellipse class="cls-31" cx="581.42" cy="398.84" rx="30.34" ry="8.63"/><ellipse class="cls-32" cx="258.4" cy="406.3" rx="26.52" ry="6.56"/><ellipse class="cls-2" cx="410.4" cy="431.88" rx="30.12" ry="5.8"/><path class="cls-33" d="M450.23,296.29q-9.27-21.19-34.77-26.4-2.77-.57-5.43-.9-22.5-2.85-37.11,10.74Q356.57,294.91,348.78,333q-4.77,23.35-2.66,40.41h37.16q-.7-10,3.92-32.56,5-24.43,9.9-33,2.85-5,6.45-6.57a9,9,0,0,1,5.59-.54q7.14,1.47,8.22,11.61t-3.77,33.9q-3.64,17.81-7.31,27.17H447a179.19,179.19,0,0,0,5-19.32q1.42-7,2.24-13.38Q457.74,313.45,450.23,296.29Z"/><path class="cls-34" d="M439.82,294.17Q431.5,275.14,410,269q-2.41-.69-5-1.22-26.19-5.36-42.54,9.84t-24.13,53.31q-1.59,7.75-2.41,14.83a104.34,104.34,0,0,0,0,27.7h37.11c-.05-.24-.08-.48-.11-.73q-1.17-9.71,3.78-34,5-24.43,9.91-33t12-7.11a8.75,8.75,0,0,1,4.82,2.65c1.85,2,3,5,3.4,8.95q1.08,10.15-3.77,33.9-4.08,19.92-8.19,29.29h40.93A181.18,181.18,0,0,0,441.59,352Q449.08,315.36,439.82,294.17Z"/><polygon class="cls-35" points="468.19 198.87 467.94 199.06 441.81 219.4 425.5 232.09 411.92 269.67 408.15 268.31 422.14 229.64 465.74 195.71 468.19 198.87"/><path class="cls-36" d="M480.71,283.21c-3,3.53-7,6-11,8.3l-.27-.47c1.57-2,3.23-4.37,2.76-6.88a8.06,8.06,0,0,0-2.88-4.22c-2.19-1.93-4.63-3.56-6.72-5.59a12.94,12.94,0,0,1-4.2-7.47c-.44-3.8,1.61-7.39,2.41-11.13a7.53,7.53,0,0,0-.17-4.51c-1.34-3.18-5.39-3.91-8.6-5.19-2.87-1.16-5.57-3.31-6.37-6.3-1.16-4.34,1.93-8.78,1.51-13.25a8.81,8.81,0,0,0-5.38-7.1l26.13-20.34c4.43,3.84,8.25,8.93,8.3,14.74,0,3.68-1.47,7.18-2.53,10.7a9.55,9.55,0,0,0-.52,4.35c.41,2.22,2.18,3.9,3.81,5.47,3.37,3.23,6.76,7.16,6.7,11.83-.06,5.24-4.53,9.91-3.75,15.09.5,3.31,3.05,5.95,4.07,9.13C485.42,274.77,483.68,279.68,480.71,283.21Z"/></g></g></svg>